<svg height="512pt" viewBox="-89 0 512 512.00002" width="512pt" xmlns="http://www.w3.org/2000/svg"><path d="m167.355469 126.21875c-4.203125 0-7.613281-3.410156-7.613281-7.613281v-21.726563c0-25.945312 21.109374-47.054687 47.054687-47.054687 8.414063 0 13.816406-2.785157 19.980469-6.894531 3.5-2.332032 8.226562-1.390626 10.558594 2.109374 2.332031 3.496094 1.386718 8.222657-2.113282 10.554688-8.066406 5.382812-16.253906 9.457031-28.425781 9.457031-17.550781 0-31.828125 14.277344-31.828125 31.828125v21.726563c0 4.203125-3.410156 7.613281-7.613281 7.613281zm0 0" fill="#e2e2e2"/><g fill="#f7b239"><path d="m237.929688 26.179688c-4.203126 0-7.609376-3.410157-7.609376-7.613282v-10.953125c0-4.207031 3.40625-7.613281 7.609376-7.613281 4.207031 0 7.613281 3.40625 7.613281 7.613281v10.953125c0 4.203125-3.40625 7.613282-7.613281 7.613282zm0 0"/><path d="m237.929688 92.113281c-4.203126 0-7.609376-3.410156-7.609376-7.613281v-10.953125c0-4.203125 3.40625-7.609375 7.609376-7.609375 4.207031 0 7.613281 3.40625 7.613281 7.609375v10.957031c0 4.199219-3.40625 7.609375-7.613281 7.609375zm0 0"/><path d="m213.109375 32-7.746094-7.746094c-2.972656-2.972656-2.972656-7.789062 0-10.765625 2.972657-2.96875 7.792969-2.96875 10.765625 0l7.746094 7.746094c2.972656 2.972656 2.972656 7.792969 0 10.765625s-7.792969 2.972656-10.765625 0zm0 0"/><path d="m259.734375 78.625-7.746094-7.746094c-2.972656-2.972656-2.972656-7.792968 0-10.765625 2.972657-2.972656 7.789063-2.972656 10.765625 0l7.742188 7.746094c2.976562 2.972656 2.976562 7.789063 0 10.761719-2.96875 2.976562-7.789063 2.976562-10.761719.003906zm0 0"/><path d="m276.375 53.667969h-10.953125c-4.203125 0-7.613281-3.40625-7.613281-7.609375 0-4.207032 3.410156-7.613282 7.613281-7.613282h10.953125c4.203125 0 7.613281 3.40625 7.613281 7.613282 0 4.203125-3.410156 7.609375-7.613281 7.609375zm0 0"/><path d="m251.988281 32c-2.972656-2.972656-2.972656-7.792969 0-10.765625l7.746094-7.746094c2.972656-2.972656 7.792969-2.96875 10.765625 0 2.972656 2.976563 2.972656 7.792969 0 10.765625l-7.746094 7.746094c-2.976562 2.972656-7.792968 2.972656-10.765625 0zm0 0"/></g><path d="m176.402344 115.558594h-18.09375c-5.5 0-9.960938 4.460937-9.960938 9.960937v23.019531h38.015625v-23.019531c0-5.5-4.460937-9.960937-9.960937-9.960937zm0 0" fill="#f46240"/><path d="m179.789062 116.164062c-1.058593-.382812-2.195312-.605468-3.386718-.605468h-18.09375c-5.5 0-9.960938 4.460937-9.960938 9.960937v23.019531h24.867188v-23.019531c0-4.308593 2.742187-7.96875 6.574218-9.355469zm0 0" fill="#e95535"/><path d="m167.355469 180.332031c18.792969 0 36.859375 3.097657 53.71875 8.808594v-30.488281c0-7.238282-5.917969-13.15625-13.152344-13.15625h-81.132813c-7.234374 0-13.152343 5.917968-13.152343 13.15625v30.488281c16.859375-5.710937 34.929687-8.808594 53.71875-8.808594zm0 0" fill="#e95535"/><path d="m144.082031 158.652344c0-7.238282 5.921875-13.15625 13.15625-13.15625h-30.449219c-7.234374 0-13.152343 5.917968-13.152343 13.15625v30.488281c9.773437-3.308594 19.957031-5.734375 30.445312-7.195313zm0 0" fill="#dd482a"/><path d="m334.710938 344.644531c0 92.425781-74.925782 167.355469-167.355469 167.355469-92.425781 0-167.355469-74.929688-167.355469-167.355469 0-92.429687 74.929688-167.355469 167.355469-167.355469 92.429687 0 167.355469 74.925782 167.355469 167.355469zm0 0" fill="#f7b239"/><path d="m30.449219 344.644531c0-87.296875 66.839843-158.964843 152.128906-166.660156-5.011719-.453125-10.089844-.695313-15.222656-.695313-92.425781 0-167.355469 74.925782-167.355469 167.355469 0 92.425781 74.929688 167.355469 167.355469 167.355469 5.132812 0 10.210937-.242188 15.222656-.695312-85.289063-7.695313-152.128906-79.367188-152.128906-166.660157zm0 0" fill="#f49d31"/><path d="m11.457031 283.675781c-5.371093 13.726563-8.984375 28.332031-10.558593 43.542969l284.902343 135.652344c10.558594-10.574219 19.703125-22.5625 27.140625-35.644532zm0 0" fill="#f49d31"/><path d="m11.457031 283.675781c-5.652343 14.441407-9.078125 29.25-10.558593 43.542969l29.589843 14.089844c.308594-15.6875 2.773438-30.839844 7.113281-45.183594zm0 0" fill="#f18829"/><path d="m334.5 353.078125-279.046875-132.867187c-11.265625 10.136718-21.144531 21.777343-29.324219 34.609374l300.003906 142.84375c4.710938-14.121093 7.597657-29.074218 8.367188-44.585937zm0 0" fill="#f49d31"/><path d="m55.453125 220.210938c-11.550781 10.394531-21.417969 22.203124-29.324219 34.609374l23.832032 11.347657c7.035156-13.222657 15.796874-25.390625 25.976562-36.203125zm0 0" fill="#f18829"/><path d="m257.882812 485.421875-256.863281-122.304687c2.210938 20.132812 7.992188 39.1875 16.695313 56.519531l185.75 88.445312c19.65625-4.324219 38.023437-12.09375 54.417968-22.660156zm0 0" fill="#f49d31"/><path d="m60.152344 439.84375c-12.53125-18.082031-21.582032-38.753906-26.207032-61.046875l-32.925781-15.679687c2.160157 19.652343 7.726563 38.582031 16.695313 56.519531zm0 0" fill="#f18829"/><path d="m85.476562 198.664062 246.8125 117.519532c-3.664062-21.402344-11.394531-41.417969-22.367187-59.222656l-164.367187-78.261719c-21.589844 2.8125-41.886719 9.742187-60.078126 19.964843zm0 0" fill="#f49d31"/><path d="m145.554688 178.699219c-21.589844 2.8125-41.882813 9.738281-60.078126 19.964843l17.28125 8.230469c15.546876-10.746093 33-18.921875 51.75-23.929687zm0 0" fill="#f18829"/></svg>