<?xml version="1.0" encoding="iso-8859-1"?>
<!-- Generator: Adobe Illustrator 19.0.0, SVG Export Plug-In . SVG Version: 6.00 Build 0)  -->
<svg version="1.1" id="Capa_1" xmlns="http://www.w3.org/2000/svg" xmlns:xlink="http://www.w3.org/1999/xlink" x="0px" y="0px"
	 viewBox="0 0 512 512" style="enable-background:new 0 0 512 512;" xml:space="preserve">
<path style="fill:#63CEC1;" d="M122.154,128.085v377.162c0,3.727-3.026,6.753-6.753,6.753H37.317c-2.017,0-3.838-0.886-5.055-2.3
	c-1.058-1.181-1.698-2.743-1.698-4.453V128.085H122.154z"/>
<g>
	<polygon style="fill:#5BBAAC;" points="122.157,320.659 30.568,394.463 30.568,348.546 122.157,274.743 	"/>
	<path style="fill:#5BBAAC;" d="M122.154,391.343v45.918L32.261,509.7c-1.058-1.181-1.698-2.743-1.698-4.453v-40.1L122.154,391.343z
		"/>
	<path style="fill:#5BBAAC;" d="M122.154,128.085v62.094h-4.797c-0.271,0-0.48,0.221-0.48,0.48v23.138
		c0,19.3-15.708,35.008-35.02,35.008s-35.02-15.708-35.02-35.008v-23.138c0-0.258-0.209-0.48-0.48-0.48h-0.308l-15.487-0.43v-61.663
		h91.592V128.085z"/>
</g>
<path style="fill:#FFC988;" d="M91.236,4.216c-3.054-5.205-10.382-5.685-14.079-0.915c-17.57,22.672-54.613,78.614,7.673,78.614
	C131.823,81.915,104.864,27.44,91.236,4.216z"/>
<path style="fill:#D8D7DA;" d="M88.56,49.685v78.399c0,4.316-3.502,7.818-7.818,7.818s-7.818-3.502-7.818-7.818V49.685
	c0-4.316,3.502-7.818,7.818-7.818S88.56,45.369,88.56,49.685z"/>
<path style="fill:#CEFFFB;" d="M46.363,168.044c12.492,0,22.619,10.127,22.619,22.619v23.128c0,7.111,5.765,12.876,12.876,12.876
	l0,0c7.111,0,12.876-5.765,12.876-12.876v-23.128c0-12.492,10.127-22.619,22.619-22.619h4.804h3.084
	c10.917,0,19.767-8.85,19.767-19.767v-0.422c0-10.917-8.85-19.767-19.767-19.767H31.633c-10.917,0-19.767,8.85-19.767,19.767l0,0
	c0,10.7,8.515,19.458,19.211,19.759L46.363,168.044z"/>
<g>
	<polygon style="fill:#FFEB96;" points="122.157,290.117 30.568,363.921 30.568,318.004 122.157,244.201 	"/>
	<polygon style="fill:#FFEB96;" points="122.157,406.2 30.568,480.003 30.568,434.087 122.157,360.283 	"/>
</g>
<path style="fill:#FFC988;" d="M299.717,128.085v377.162c0,3.727-3.026,6.753-6.753,6.753H214.88c-2.017,0-3.838-0.886-5.055-2.3
	c-1.058-1.181-1.698-2.743-1.698-4.453V128.085H299.717z"/>
<g>
	<polygon style="fill:#FFB64D;" points="299.721,320.659 208.131,394.463 208.131,348.546 299.721,274.743 	"/>
	<path style="fill:#FFB64D;" d="M299.717,391.343v45.918L209.825,509.7c-1.058-1.181-1.698-2.743-1.698-4.453v-40.1L299.717,391.343
		z"/>
	<path style="fill:#FFB64D;" d="M299.717,128.085v62.094h-4.797c-0.271,0-0.48,0.221-0.48,0.48v23.138
		c0,19.3-15.708,35.008-35.02,35.008s-35.02-15.708-35.02-35.008v-23.138c0-0.258-0.209-0.48-0.48-0.48h-0.308l-15.487-0.43v-61.663
		h91.592V128.085z"/>
</g>
<path style="fill:#FFC988;" d="M268.799,4.216c-3.054-5.205-10.382-5.685-14.079-0.915c-17.57,22.672-54.613,78.614,7.673,78.614
	C309.387,81.915,282.428,27.44,268.799,4.216z"/>
<path style="fill:#D8D7DA;" d="M266.123,49.685v78.399c0,4.316-3.502,7.818-7.818,7.818c-4.315,0-7.818-3.502-7.818-7.818V49.685
	c0-4.316,3.503-7.818,7.818-7.818C262.62,41.867,266.123,45.369,266.123,49.685z"/>
<path style="fill:#FFDAA7;" d="M223.927,168.044c12.492,0,22.619,10.127,22.619,22.619v23.128c0,7.111,5.765,12.876,12.876,12.876
	l0,0c7.111,0,12.876-5.765,12.876-12.876v-23.128c0-12.492,10.127-22.619,22.619-22.619h4.804h3.084
	c10.917,0,19.767-8.85,19.767-19.767v-0.422c0-10.917-8.85-19.767-19.767-19.767h-93.608c-10.917,0-19.767,8.85-19.767,19.767l0,0
	c0,10.7,8.515,19.458,19.211,19.759L223.927,168.044z"/>
<g>
	<polygon style="fill:#D36B16;" points="299.721,290.117 208.131,363.921 208.131,318.004 299.721,244.201 	"/>
	<polygon style="fill:#D36B16;" points="299.721,406.2 208.131,480.003 208.131,434.087 299.721,360.283 	"/>
</g>
<path style="fill:#FFA6B7;" d="M477.281,128.085v377.162c0,3.727-3.026,6.753-6.753,6.753h-78.084c-2.017,0-3.838-0.886-5.055-2.3
	c-1.058-1.181-1.698-2.743-1.698-4.453V128.085H477.281z"/>
<g>
	<polygon style="fill:#FC819C;" points="477.284,320.659 385.695,394.463 385.695,348.546 477.284,274.743 	"/>
	<path style="fill:#FC819C;" d="M477.281,391.343v45.918L387.388,509.7c-1.058-1.181-1.698-2.743-1.698-4.453v-40.1L477.281,391.343
		z"/>
	<path style="fill:#FC819C;" d="M477.281,128.085v62.094h-4.797c-0.271,0-0.48,0.221-0.48,0.48v23.138
		c0,19.3-15.708,35.008-35.02,35.008c-19.312,0-35.02-15.708-35.02-35.008v-23.138c0-0.258-0.209-0.48-0.48-0.48h-0.307
		l-15.487-0.43v-61.663h91.591V128.085z"/>
</g>
<path style="fill:#FFC988;" d="M446.363,4.216c-3.054-5.205-10.382-5.685-14.079-0.915c-17.57,22.672-54.613,78.614,7.673,78.614
	C486.95,81.915,459.991,27.44,446.363,4.216z"/>
<path style="fill:#D8D7DA;" d="M443.685,49.685v78.399c0,4.316-3.492,7.818-7.818,7.818c-4.316,0-7.818-3.502-7.818-7.818V49.685
	c0-4.316,3.502-7.818,7.818-7.818C440.193,41.867,443.685,45.369,443.685,49.685z"/>
<path style="fill:#FFC7D4;" d="M401.49,168.044c12.492,0,22.619,10.127,22.619,22.619v23.128c0,7.111,5.765,12.876,12.876,12.876
	l0,0c7.111,0,12.876-5.765,12.876-12.876v-23.128c0-12.492,10.127-22.619,22.619-22.619h4.804h3.084
	c10.917,0,19.767-8.85,19.767-19.767v-0.422c0-10.917-8.85-19.767-19.767-19.767H386.76c-10.917,0-19.767,8.85-19.767,19.767l0,0
	c0,10.7,8.515,19.458,19.211,19.759L401.49,168.044z"/>
<g>
	<polygon style="fill:#8FE5D8;" points="477.284,290.117 385.695,363.921 385.695,318.004 477.284,244.201 	"/>
	<polygon style="fill:#8FE5D8;" points="477.284,406.2 385.695,480.003 385.695,434.087 477.284,360.283 	"/>
</g>
<g>
</g>
<g>
</g>
<g>
</g>
<g>
</g>
<g>
</g>
<g>
</g>
<g>
</g>
<g>
</g>
<g>
</g>
<g>
</g>
<g>
</g>
<g>
</g>
<g>
</g>
<g>
</g>
<g>
</g>
</svg>
