<?xml version="1.0" encoding="utf-8"?>
<!-- Generator: Adobe Illustrator 22.1.0, SVG Export Plug-In . SVG Version: 6.00 Build 0)  -->
<svg version="1.1" id="Слой_1" xmlns="http://www.w3.org/2000/svg" xmlns:xlink="http://www.w3.org/1999/xlink" x="0px" y="0px"
	 viewBox="0 0 362 106" style="enable-background:new 0 0 362 106;" xml:space="preserve">
<style type="text/css">
	.st0{fill:#133330;}
	.st1{fill:#D9BC16;}
	.st2{fill:none;}
	.st3{font-family:'Chalkboard';}
	.st4{font-size:60px;}
</style>
<g>
	<g>
		<path class="st0" d="M76.2,25.2c-7.8-1-7.2,6.1-8.7,11.4c-0.8,2.8-4.3,1.3-6.3,1.1c-1.7-0.1-3.3,0-4.8,0.7
			c-6-5.1-13.7-8.1-22.1-8.1C15.3,30.4,0,45.7,0,64.7C0,83.6,15.4,99,34.3,99s34.3-15.3,34.3-34.3c0-8.5-3.1-16.3-8.3-22.3
			c0.8-0.1,1.7,0,2.8,0.2c2.7,0.5,5.3,0.1,7.1-2c1.5-1.6,1.8-4,2.1-6.1c0.4-2.9,0.3-5.3,3.9-4.9C79,30,78.9,25.6,76.2,25.2z
			 M23,51.5c-4.6,3.3-7.3,8.6-7.3,14.2c0,2.2-1.8,4-4,4s-4-1.8-4-4c0-8.2,4-15.9,10.7-20.7c1.8-1.3,4.3-0.9,5.6,0.9
			C25.2,47.8,24.8,50.3,23,51.5z"/>
		<path class="st1" d="M61.1,19.2c0.5,1.1,1.8,1.6,2.9,1.1c1.1-0.5,1.6-1.8,1.1-2.9L60.4,7.3c-0.5-1.1-1.8-1.6-2.9-1.1
			c-0.4,0.2-0.6,0.4-0.9,0.7c-0.4,0.6-0.5,1.4-0.2,2.2L61.1,19.2z"/>
		<path class="st1" d="M75.2,20.3c1.1,0.5,2.4,0,2.9-1l4.7-10.1c0.5-1.1,0-2.4-1-2.9S79.7,6.2,79.1,7C79,7.1,79,7.2,78.9,7.3
			l-4.7,10.1C73.6,18.5,74.1,19.8,75.2,20.3z"/>
		<path class="st1" d="M97.3,24.9c-0.3-1.2-1.5-1.9-2.7-1.6l-10.7,2.8c-0.5,0.1-0.9,0.4-1.2,0.9c-0.4,0.5-0.5,1.2-0.3,1.8
			c0.3,1.2,1.5,1.9,2.7,1.6l10.7-2.8C96.9,27.3,97.6,26.1,97.3,24.9z"/>
		<path class="st1" d="M92.4,45.7l-9.1-6.4c-1-0.7-2.3-0.5-3,0.5s-0.5,2.3,0.5,3l9.1,6.4c1,0.7,2.3,0.5,3-0.5
			C93.6,47.8,93.4,46.4,92.4,45.7z"/>
	</g>
</g>
<rect x="110.9" y="31.8" class="st2" width="251.1" height="43"/>
<text transform="matrix(1 0 0 1 110.9473 74.325)" class="st0 st3 st4">FireBoom</text>
</svg>
