<?xml version="1.0" encoding="utf-8"?>
<!-- Generator: Adobe Illustrator 22.1.0, SVG Export Plug-In . SVG Version: 6.00 Build 0)  -->
<svg version="1.1" id="Слой_1" xmlns="http://www.w3.org/2000/svg" xmlns:xlink="http://www.w3.org/1999/xlink" x="0px" y="0px"
	 viewBox="0 0 362 106" style="enable-background:new 0 0 362 106;" xml:space="preserve">
<style type="text/css">
	.st0{fill:#133330;}
	.st1{fill:#D9BC16;}
	.st2{fill:none;}
	.st3{enable-background:new    ;}
	.st4{fill:#FFFFFF;}
</style>
<path class="st0" d="M76.2,25.2c-7.8-1-7.2,6.1-8.7,11.4c-0.8,2.8-4.3,1.3-6.3,1.1c-1.7-0.1-3.3,0-4.8,0.7c-6-5.1-13.7-8.1-22.1-8.1
	C15.3,30.4,0,45.7,0,64.7C0,83.6,15.4,99,34.3,99s34.3-15.3,34.3-34.3c0-8.5-3.1-16.3-8.3-22.3c0.8-0.1,1.7,0,2.8,0.2
	c2.7,0.5,5.3,0.1,7.1-2c1.5-1.6,1.8-4,2.1-6.1c0.4-2.9,0.3-5.3,3.9-4.9C79,30,78.9,25.6,76.2,25.2z M23,51.5
	c-4.6,3.3-7.3,8.6-7.3,14.2c0,2.2-1.8,4-4,4s-4-1.8-4-4c0-8.2,4-15.9,10.7-20.7c1.8-1.3,4.3-0.9,5.6,0.9
	C25.2,47.8,24.8,50.3,23,51.5z"/>
<path class="st1" d="M61.1,19.2c0.5,1.1,1.8,1.6,2.9,1.1c1.1-0.5,1.6-1.8,1.1-2.9L60.4,7.3c-0.5-1.1-1.8-1.6-2.9-1.1
	c-0.4,0.2-0.6,0.4-0.9,0.7c-0.4,0.6-0.5,1.4-0.2,2.2L61.1,19.2z M75.2,20.3c1.1,0.5,2.4,0,2.9-1l4.7-10.1c0.5-1.1,0-2.4-1-2.9
	S79.7,6.2,79.1,7C79,7.1,79,7.2,78.9,7.3l-4.7,10.1C73.6,18.5,74.1,19.8,75.2,20.3z M97.3,24.9c-0.3-1.2-1.5-1.9-2.7-1.6l-10.7,2.8
	c-0.5,0.1-0.9,0.4-1.2,0.9c-0.4,0.5-0.5,1.2-0.3,1.8c0.3,1.2,1.5,1.9,2.7,1.6l10.7-2.8C96.9,27.3,97.6,26.1,97.3,24.9z M92.4,45.7
	l-9.1-6.4c-1-0.7-2.3-0.5-3,0.5s-0.5,2.3,0.5,3l9.1,6.4c1,0.7,2.3,0.5,3-0.5C93.6,47.8,93.4,46.4,92.4,45.7z"/>
<path class="st2" d="M110.9,31.8H362v43H110.9V31.8z"/>
<g class="st3">
	<path class="st4" d="M119.3,74.8c-0.6,0.5-1.2,0.8-1.8,0.8c-0.6,0-1.2-0.2-1.7-0.7s-0.9-1.2-1-2.2V56.2c-1.1-0.5-1.7-1.3-1.7-2.5
		c0-0.5,0.1-1,0.4-1.4c0.3-0.5,0.7-0.8,1.3-1v-0.5c0-0.5,0-1.2,0-1.9s0-1.5,0-2.4c0-1.3-0.1-2.5-0.2-3.7c-0.1-1.2-0.4-2.1-0.9-2.9
		c-0.3-0.6-0.4-1.2-0.4-1.7c0-1.3,0.7-2.1,2.1-2.6c1.6-0.3,3.3-0.4,4.9-0.5s3.3-0.1,5-0.1c1.7,0,3.3-0.1,5-0.1c1.7,0,3.3-0.2,5-0.4
		c1.1,0,1.9,0.2,2.4,0.7s0.8,1.1,0.8,1.9c0,0.6-0.2,1.2-0.6,1.7c-0.4,0.5-1.1,0.9-2,1.1c-2.7,0.4-5.4,0.5-8.1,0.5
		c-2.7,0-5.4,0.1-8.1,0.2c0.2,0.9,0.4,1.9,0.4,2.9c0.1,1,0.1,2,0.1,3c0,0.8,0,1.5,0,2.1s0,1.3,0,1.9v0.7c2.4,0,4.8-0.1,7.4-0.2
		s4.7-0.5,6.6-1c1,0,1.8,0.2,2.4,0.7c0.6,0.5,0.9,1.1,0.9,1.9c0,1.1-0.6,1.9-1.9,2.5c-1.2,0.6-2.7,0.9-4.5,1.2
		c-1.8,0.2-3.6,0.3-5.6,0.3c-2,0-3.7,0-5.2,0v15.8C120.1,73.6,119.8,74.3,119.3,74.8z"/>
	<path class="st4" d="M144.8,36.1c0-1,0.3-1.8,0.9-2.5c0.6-0.7,1.4-1,2.3-1c0.9,0,1.6,0.3,2.3,1c0.6,0.7,1,1.5,1,2.5
		c0,0.9-0.3,1.7-1,2.4s-1.4,1-2.3,1c-0.9,0-1.6-0.3-2.3-1C145.1,37.9,144.8,37.1,144.8,36.1z M150.9,72.2c0,1-0.3,1.8-0.9,2.3
		c-0.6,0.5-1.2,0.8-1.8,0.8c-0.6,0-1.2-0.2-1.7-0.7c-0.5-0.5-0.9-1.2-1-2.2c0-4.2-0.1-8.4-0.1-12.7c0-4.3-0.1-8.6-0.1-12.7
		c0.2-0.9,0.6-1.5,1.1-2c0.5-0.4,1-0.7,1.7-0.7c0.6,0,1.1,0.2,1.6,0.6c0.5,0.4,0.9,1,1.1,1.9c0,4.2,0.1,8.4,0.1,12.7
		C150.8,63.8,150.9,68,150.9,72.2z"/>
	<path class="st4" d="M160.9,51.3c-0.7-0.4-1.1-0.8-1.5-1.3c-0.3-0.5-0.5-1-0.5-1.5c0-0.7,0.2-1.2,0.7-1.8c0.5-0.5,1.1-0.8,2-0.8
		c0.6,0,1.4,0.2,2.3,0.7c0.9,0.4,1.7,0.9,2.2,1.5c1.4-1.1,2.8-2.1,4.2-2.9c1.5-0.8,2.9-1.1,4.4-1.1c0.4,0,1.1,0.1,1.9,0.3
		c0.8,0.2,1.7,0.6,2.5,1c0.8,0.4,1.5,1,2.2,1.7c0.6,0.7,0.9,1.5,0.9,2.5c0,0.8-0.2,1.4-0.7,1.8c-0.5,0.5-1.1,0.7-1.8,0.7
		c-0.5,0-0.9-0.1-1.3-0.4c-0.4-0.3-0.8-0.6-1.1-0.9c-0.4-0.3-0.8-0.6-1.2-0.9c-0.4-0.3-0.9-0.4-1.4-0.4c-0.6,0-1.3,0.2-2,0.6
		c-0.7,0.4-1.5,0.8-2.2,1.4s-1.4,1.1-2.1,1.7c-0.7,0.6-1.2,1.2-1.7,1.7v17.6c0,1-0.3,1.8-0.9,2.3c-0.6,0.5-1.2,0.8-1.8,0.8
		c-0.6,0-1.2-0.2-1.7-0.7s-0.9-1.2-1-2.2V54.6c0-0.1,0-0.2,0-0.3c0-0.1,0-0.2,0-0.3c0-0.1,0-0.2,0-0.3c0-0.1,0-0.2,0-0.3v-1.9
		C161.2,51.4,161.1,51.3,160.9,51.3z"/>
	<path class="st4" d="M206.9,66.6c0.9-0.4,1.7-0.4,2.4-0.1c0.7,0.3,1.1,0.7,1.4,1.3c0.3,0.6,0.3,1.2,0.1,1.9
		c-0.2,0.7-0.7,1.3-1.6,1.8c-1.5,0.8-3,1.6-4.7,2.3s-3.4,1.2-5.1,1.5c-1.7,0.3-3.4,0.3-5.1,0c-1.7-0.3-3.3-1-4.8-2
		c-1.9-1.3-3.3-3-4.2-5.2c-1-2.2-1.5-4.5-1.5-6.8c0-2.4,0.4-4.6,1.3-6.8c0.9-2.2,2.3-3.9,4.3-5.3c2-1.4,4.2-2.4,6.6-3.1
		c2.4-0.7,4.8-0.8,7.2-0.2c1.2,0.3,2.3,0.8,3.2,1.7c1,0.9,1.8,1.9,2.4,3s0.9,2.3,1,3.6c0,1.3-0.3,2.4-0.9,3.5
		c-0.8,1.2-1.8,2.3-3.2,3.1c-1.4,0.9-3,1.6-4.6,2.2s-3.3,1.1-5,1.5c-1.7,0.4-3.1,0.8-4.3,1.1c-0.5,0.1-1,0.2-1.5,0.1
		c0.7,1.4,1.6,2.6,3,3.5c1.3,0.9,2.9,1.3,4.9,1.2c1.5-0.1,3.1-0.5,4.7-1.3C204.2,68.1,205.7,67.3,206.9,66.6z M194,52.4
		c-1.6,0.8-2.9,2-3.6,3.5c-0.8,1.5-1.2,3.1-1.2,4.8c0.3-0.2,0.6-0.4,1-0.5c0.8-0.2,1.6-0.5,2.4-0.7c0.8-0.2,1.6-0.5,2.5-0.7
		c0.5-0.1,1.2-0.3,2.2-0.6c0.9-0.3,1.8-0.6,2.8-0.9c1-0.4,1.9-0.8,2.7-1.2c0.8-0.5,1.3-1,1.6-1.6c0.1-1.5-0.3-2.5-1.1-3
		c-0.8-0.5-1.7-0.8-2.9-0.8c-1.1,0-2.3,0.2-3.4,0.6C195.7,51.7,194.8,52.1,194,52.4z"/>
	<path class="st4" d="M221.1,74.7c-1-0.1-1.7-0.4-2.2-1c-0.5-0.6-0.7-1.1-0.7-1.8c0-0.3,0.1-0.7,0.3-1.1V42.2
		c-0.4,0.1-0.8,0.2-1.2,0.2c-0.8,0-1.4-0.2-1.8-0.7c-0.5-0.5-0.7-1.1-0.7-1.7c0-1,0.5-1.9,1.6-2.7c1.1-0.8,2.3-1.6,3.8-2.2
		c1.5-0.6,3.1-1.1,4.7-1.5c1.6-0.4,3-0.5,4.1-0.5c2,0,3.8,0.3,5.4,1s3,1.5,4.1,2.6c1.1,1,2,2.2,2.6,3.4s0.9,2.5,0.9,3.7
		c0,1.7-0.4,3.3-1.3,4.9c-0.9,1.6-2.1,2.9-3.6,4.1c2.2,1.1,3.8,2.5,4.9,4.2c1.1,1.7,1.6,3.5,1.6,5.3c0,1.2-0.2,2.4-0.7,3.6
		c-0.4,1.2-1.1,2.3-1.8,3.3c-0.8,1-1.7,1.9-2.8,2.7c-1.1,0.8-2.2,1.4-3.5,1.8c-1.6,0.5-3.3,0.9-5,1c-1.7,0.2-3.4,0.2-5.1,0.2
		c-0.6,0-1.2,0-1.8,0S221.7,74.7,221.1,74.7z M226,50.2c0.7,0,1.4,0.1,2.1,0.1c0.6,0,1.4-0.2,2.4-0.5c1-0.3,1.9-0.7,2.8-1.2
		c0.9-0.5,1.6-1.1,2.3-1.9c0.6-0.8,1-1.6,1-2.7c0-1-0.2-1.8-0.7-2.5c-0.5-0.7-1.1-1.3-1.9-1.8c-0.8-0.5-1.6-0.8-2.6-1
		c-1-0.2-1.9-0.3-2.8-0.3c-1.7,0-3.2,0.3-4.7,0.9v10.9C224.6,50.2,225.3,50.2,226,50.2z M235.6,58c-1-0.7-2.1-1.2-3.3-1.6
		c-1.2-0.3-2.5-0.6-3.7-0.7c-0.8,0.1-1.5,0.2-2.3,0.2c-0.8,0.1-1.5,0.1-2.3,0.1v13.3c0.9,0,2.2,0,3.8-0.1c1.6-0.1,3.1-0.3,4.7-0.8
		c1.5-0.4,2.9-1.1,4-2c1.1-0.9,1.7-2.2,1.7-3.9c0-0.9-0.2-1.7-0.6-2.5S236.4,58.5,235.6,58z"/>
	<path class="st4" d="M249.3,58.1c0.5-1.4,1.1-2.8,1.8-4.1c0.7-1.3,1.5-2.6,2.5-3.7c1-1.1,2.1-2.1,3.3-2.9s2.7-1.4,4.2-1.7
		c2.6-0.6,4.8-0.4,6.7,0.6c1.9,1,3.5,2.4,4.6,4.2s1.9,3.9,2.3,6.2c0.4,2.3,0.3,4.5-0.3,6.7c-0.7,2.6-1.8,5-3.5,7.3
		c-1.7,2.3-3.8,3.9-6.4,4.9c-1.9,0.8-3.7,1-5.5,0.8c-1.7-0.2-3.3-0.8-4.7-1.7c-1.4-0.9-2.6-2.1-3.5-3.6c-1-1.5-1.6-3.2-2-5.1
		c-0.2-1.2-0.3-2.4-0.2-3.5s0.2-2.3,0.4-3.4L249.3,58.1z M254.5,59.6c-0.2,0.9-0.3,1.8-0.4,2.6c-0.1,0.8,0,1.6,0.1,2.6
		c0.1,1.2,0.5,2.3,1.1,3.2c0.6,1,1.4,1.7,2.3,2.2c0.9,0.5,1.9,0.8,3,0.7s2.2-0.4,3.3-1c1.5-0.9,2.6-2,3.5-3.4c0.9-1.4,1.5-2.9,2-4.6
		c0.4-1.3,0.4-2.7,0.2-4.2c-0.2-1.5-0.7-2.8-1.4-4c-0.7-1.1-1.7-2-2.9-2.5s-2.6-0.4-4.2,0.2c-1.8,0.8-3.2,1.9-4.2,3.4
		S255.1,57.9,254.5,59.6z"/>
	<path class="st4" d="M280.9,58.1c0.5-1.4,1.1-2.8,1.8-4.1c0.7-1.3,1.5-2.6,2.5-3.7c1-1.1,2.1-2.1,3.3-2.9c1.3-0.8,2.7-1.4,4.2-1.7
		c2.6-0.6,4.8-0.4,6.7,0.6c1.9,1,3.5,2.4,4.6,4.2c1.1,1.8,1.9,3.9,2.3,6.2c0.4,2.3,0.3,4.5-0.3,6.7c-0.7,2.6-1.8,5-3.5,7.3
		s-3.8,3.9-6.4,4.9c-1.9,0.8-3.7,1-5.5,0.8c-1.7-0.2-3.3-0.8-4.7-1.7c-1.4-0.9-2.6-2.1-3.5-3.6c-1-1.5-1.6-3.2-2-5.1
		c-0.2-1.2-0.3-2.4-0.2-3.5s0.2-2.3,0.4-3.4L280.9,58.1z M286,59.6c-0.2,0.9-0.3,1.8-0.4,2.6c-0.1,0.8,0,1.6,0.1,2.6
		c0.1,1.2,0.5,2.3,1.1,3.2s1.4,1.7,2.3,2.2c0.9,0.5,1.9,0.8,3,0.7c1.1,0,2.2-0.4,3.3-1c1.5-0.9,2.6-2,3.5-3.4c0.9-1.4,1.5-2.9,2-4.6
		c0.4-1.3,0.4-2.7,0.2-4.2c-0.2-1.5-0.7-2.8-1.4-4c-0.7-1.1-1.7-2-2.9-2.5s-2.6-0.4-4.2,0.2c-1.8,0.8-3.2,1.9-4.2,3.4
		C287.4,56.3,286.6,57.9,286,59.6z"/>
	<path class="st4" d="M329.1,55.4c0-0.1-0.1-0.3-0.1-0.5v-0.7c-0.5-1.4-1.4-2.4-2.5-3c-1.2-0.6-2.4-1-3.8-1c-1,0.3-1.9,0.8-2.8,1.4
		l-1.4,1.8c-0.1,0.2-0.3,0.3-0.4,0.4c-0.1,0.1-0.3,0.2-0.4,0.3v18.2c0,1-0.3,1.8-0.9,2.3c-0.6,0.5-1.2,0.8-1.8,0.8
		c-0.6,0-1.2-0.2-1.7-0.7c-0.5-0.5-0.9-1.2-1-2.2V46.9c0.2-0.9,0.6-1.5,1.1-2c0.5-0.4,1-0.6,1.7-0.6c0.5,0,1,0.2,1.6,0.6
		c0.5,0.4,0.9,1,1.1,1.8c0.7-0.5,1.6-0.9,2.6-1.4c1-0.4,2-0.6,3.1-0.6c1.6,0,3.2,0.4,4.9,1.2c1.7,0.8,3,1.8,4,3.1
		c0.5-0.5,1-1,1.6-1.5c0.6-0.5,1.1-1,1.8-1.4c0.6-0.4,1.3-0.8,1.9-1.1c0.7-0.3,1.3-0.4,2-0.4c1.4,0,2.7,0.2,4,0.7
		c1.3,0.5,2.5,1.1,3.5,1.9c1,0.8,1.9,1.8,2.5,2.9c0.6,1.1,1,2.2,1,3.4c0,0.1,0,0.2,0,0.2c0,0,0,0.1,0,0.2c0,0,0.1,0.1,0.1,0.1
		c0,0,0,0.1,0.1,0.1v18c0,1-0.3,1.8-0.9,2.3c-0.6,0.5-1.2,0.8-1.8,0.8c-0.6,0-1.2-0.2-1.7-0.7s-0.9-1.2-1-2.2V54.1
		c-0.5-1.5-1.2-2.6-2.3-3.1c-1-0.6-2-0.8-3-0.8c-1.1,0-2.2,0.3-3.1,0.9c-0.9,0.6-1.7,1.6-2.3,3.2V72c0,1-0.3,1.8-0.9,2.3
		c-0.6,0.5-1.2,0.8-1.8,0.8c-0.6,0-1.2-0.2-1.7-0.7s-0.9-1.2-1-2.2V55.7C329.1,55.6,329.1,55.5,329.1,55.4z"/>
</g>
</svg>
