<?xml version="1.0" encoding="iso-8859-1"?>
<!-- Generator: Adobe Illustrator 18.0.0, SVG Export Plug-In . SVG Version: 6.00 Build 0)  -->
<!DOCTYPE svg PUBLIC "-//W3C//DTD SVG 1.1//EN" "http://www.w3.org/Graphics/SVG/1.1/DTD/svg11.dtd">
<svg version="1.1" id="Capa_1" xmlns="http://www.w3.org/2000/svg" xmlns:xlink="http://www.w3.org/1999/xlink" x="0px" y="0px"
	 viewBox="0 0 58 58" style="enable-background:new 0 0 58 58;" xml:space="preserve">
<g>
	<g>
		<path style="fill:#E64C3C;" d="M32,24c-6.075,0-11-2.239-11-5v34c0,2.119,2.905,3.926,7,4.654v-17C29.241,40.875,30.587,41,32,41
			s2.759-0.125,4-0.346v17c4.095-0.728,7-2.535,7-4.654V19C43,21.761,38.075,24,32,24z"/>
	</g>
	<ellipse style="fill:#C03A2B;" cx="32" cy="19" rx="11" ry="5"/>
	<polygon style="fill:#FFFFFF;" points="26.008,26 26.937,27.883 29.015,28.185 27.511,29.651 27.866,31.721 26.008,30.743 
		24.149,31.721 24.504,29.651 23,28.185 25.078,27.883 	"/>
	<polygon style="fill:#FFFFFF;" points="37.985,26 38.914,27.883 40.992,28.185 39.489,29.651 39.844,31.721 37.985,30.743 
		36.126,31.721 36.481,29.651 34.977,28.185 37.056,27.883 	"/>
	<polygon style="fill:#FFFFFF;" points="32.008,32.279 32.937,34.162 35.015,34.464 33.511,35.93 33.866,38 32.008,37.023 
		30.149,38 30.504,35.93 29,34.464 31.078,34.162 	"/>
	<path style="fill:#8697CB;" d="M28,57.654C29.241,57.875,30.587,58,32,58s2.759-0.125,4-0.346v-17C34.759,40.875,33.413,41,32,41
		s-2.759-0.125-4-0.346V57.654z"/>
	<path style="fill:#F0C419;" d="M22,4c-0.552,0-1-0.447-1-1V1c0-0.553,0.448-1,1-1s1,0.447,1,1v2C23,3.553,22.552,4,22,4z"/>
	<path style="fill:#F0C419;" d="M25,5c-0.256,0-0.512-0.098-0.707-0.293c-0.391-0.391-0.391-1.023,0-1.414l2-2
		c0.391-0.391,1.023-0.391,1.414,0s0.391,1.023,0,1.414l-2,2C25.512,4.902,25.256,5,25,5z"/>
	<path style="fill:#F0C419;" d="M19,5c-0.256,0-0.512-0.098-0.707-0.293l-2-2c-0.391-0.391-0.391-1.023,0-1.414s1.023-0.391,1.414,0
		l2,2c0.391,0.391,0.391,1.023,0,1.414C19.512,4.902,19.256,5,19,5z"/>
	<path style="fill:#F0C419;" d="M18,8h-2c-0.552,0-1-0.447-1-1s0.448-1,1-1h2c0.552,0,1,0.447,1,1S18.552,8,18,8z"/>
	<path style="fill:#F0C419;" d="M28,8h-2c-0.552,0-1-0.447-1-1s0.448-1,1-1h2c0.552,0,1,0.447,1,1S28.552,8,28,8z"/>
	<path style="fill:#D1D4D1;" d="M26.615,11.615C24.622,11.615,23,9.993,23,8V7c0-0.553-0.448-1-1-1s-1,0.447-1,1v1
		c0,3.097,2.519,5.615,5.615,5.615C29.033,13.615,31,15.582,31,18c0,0.553,0.448,1,1,1s1-0.447,1-1
		C33,14.479,30.136,11.615,26.615,11.615z"/>
	<path style="fill:#F0C419;" d="M17,13c-0.256,0-0.512-0.098-0.707-0.293c-0.391-0.391-0.391-1.023,0-1.414l2-2
		c0.391-0.391,1.023-0.391,1.414,0s0.391,1.023,0,1.414l-2,2C17.512,12.902,17.256,13,17,13z"/>
	<g>
		<path style="fill:#556080;" d="M29.925,40.908c0.012,0.001,0.024,0.002,0.036,0.003C29.949,40.91,29.937,40.909,29.925,40.908z"/>
		<path style="fill:#556080;" d="M28,40.654L28,40.654c-4.095-0.728-7-2.535-7-4.654v17c0,2.119,2.905,3.926,7,4.654V40.654z"/>
		<path style="fill:#556080;" d="M36,40.654L36,40.654l0,17c4.095-0.728,7-2.535,7-4.654V36C43,38.119,40.095,39.926,36,40.654z"/>
		<path style="fill:#556080;" d="M34.075,40.908c-0.012,0.001-0.024,0.002-0.036,0.003C34.051,40.91,34.063,40.909,34.075,40.908z"
			/>
	</g>
</g>
<g>
</g>
<g>
</g>
<g>
</g>
<g>
</g>
<g>
</g>
<g>
</g>
<g>
</g>
<g>
</g>
<g>
</g>
<g>
</g>
<g>
</g>
<g>
</g>
<g>
</g>
<g>
</g>
<g>
</g>
</svg>
