<?xml version="1.0" encoding="utf-8"?>
<!-- Generator: Adobe Illustrator 22.1.0, SVG Export Plug-In . SVG Version: 6.00 Build 0)  -->
<svg version="1.1" id="Capa_1" xmlns="http://www.w3.org/2000/svg" xmlns:xlink="http://www.w3.org/1999/xlink" x="0px" y="0px"
	 viewBox="0 0 496 496" style="enable-background:new 0 0 496 496;" xml:space="preserve">
<style type="text/css">
	.st0{fill:#133330;}
</style>
<g>
	<g>
		<path class="st0" d="M282,36.3l-4,15.5c27.1,7,51.1,23.4,67.5,46.3l13-9.3C339.9,62.8,312.7,44.2,282,36.3z"/>
	</g>
</g>
<g>
	<g>
		<path class="st0" d="M248,32v16c5,0,10.1,0.3,15,0.9l2-15.9C259.4,32.4,253.7,32,248,32z"/>
	</g>
</g>
<g>
	<g>
		<path class="st0" d="M493.8,368H424v-48H319.1c57.2-26.8,96.9-84.8,96.9-152C416,75.4,340.6,0,248,0S80,75.4,80,168
			c0,67.2,39.8,125.2,96.9,152H72v48H2.2l36.6,64L2.2,496H152v-48h192v48h149.8l-36.6-64L493.8,368z M96,168
			c0-83.8,68.2-152,152-152s152,68.2,152,152c0,80.2-62.6,146-141.4,151.5l111.3-143.1L332.3,120H163.7l-37.6,56.4l111.3,143.1
			C158.6,314,96,248.2,96,168z M305.1,168l22.2-26.6L345,168H305.1z M343.6,184l-77.1,99.1l27.5-99.1H343.6z M288,163.5L265.1,136
			h45.8L288,163.5z M270.9,168h-45.8l22.9-27.5L270.9,168z M208,163.5L185.1,136h45.8L208,163.5z M190.9,168h-40l17.8-26.6
			L190.9,168z M201.9,184l27.5,99.1L152.4,184H201.9z M218.5,184h59L248,290.1L218.5,184z M29.8,480l27.4-48l-27.4-48H72v60l48,36
			H29.8z M136,472l-32-24h32V472z M88,432v-96h320v96H88z M360,448h32l-32,24V448z M466.2,480H376l48-36v-60h42.2l-27.4,48
			L466.2,480z"/>
	</g>
</g>
<g>
	<g>
		<rect x="240" y="360" class="st0" width="16" height="16"/>
	</g>
</g>
<g>
	<g>
		<rect x="224" y="376" class="st0" width="16" height="16"/>
	</g>
</g>
<g>
	<g>
		<rect x="240" y="392" class="st0" width="16" height="16"/>
	</g>
</g>
<g>
	<g>
		<rect x="256" y="376" class="st0" width="16" height="16"/>
	</g>
</g>
<g>
	<g>
		<rect x="344" y="360" class="st0" width="16" height="16"/>
	</g>
</g>
<g>
	<g>
		<rect x="328" y="376" class="st0" width="16" height="16"/>
	</g>
</g>
<g>
	<g>
		<rect x="344" y="392" class="st0" width="16" height="16"/>
	</g>
</g>
<g>
	<g>
		<rect x="360" y="376" class="st0" width="16" height="16"/>
	</g>
</g>
<g>
	<g>
		<rect x="136" y="360" class="st0" width="16" height="16"/>
	</g>
</g>
<g>
	<g>
		<rect x="120" y="376" class="st0" width="16" height="16"/>
	</g>
</g>
<g>
	<g>
		<rect x="136" y="392" class="st0" width="16" height="16"/>
	</g>
</g>
<g>
	<g>
		<rect x="152" y="376" class="st0" width="16" height="16"/>
	</g>
</g>
</svg>
