<svg height="512pt" viewBox="-45 0 512 512" width="512pt" xmlns="http://www.w3.org/2000/svg"><path d="m41.894531 512c-3.972656 0-7.945312-1.515625-10.972656-4.546875-6.0625-6.058594-6.0625-15.882813 0-21.945313l89.210937-89.210937c6.058594-6.058594 15.882813-6.058594 21.945313 0 6.058594 6.058594 6.058594 15.886719 0 21.945313l-89.210937 89.210937c-3.03125 3.03125-7.003907 4.546875-10.972657 4.546875zm0 0" fill="#897bad"/><path d="m178.714844 375.1875c-3.96875 0-7.941406-1.511719-10.96875-4.542969l-115.589844-115.589843c-6.0625-6.058594-6.0625-15.882813 0-21.945313l127.589844-127.589844c6.058594-6.058593 15.882812-6.058593 21.945312 0l115.589844 115.589844c2.910156 2.910156 4.542969 6.855469 4.542969 10.972656 0 4.113281-1.632813 8.0625-4.542969 10.972657l-127.589844 127.589843c-3.03125 3.03125-7.003906 4.542969-10.976562 4.542969zm0 0" fill="#ffda45"/><path d="m317.28125 221.109375-57.796875-57.792969-149.535156 149.53125 57.796875 57.796875c3.027344 3.027344 7 4.542969 10.96875 4.542969 3.972656 0 7.945312-1.511719 10.972656-4.542969l127.589844-127.589843c2.910156-2.910157 4.546875-6.859376 4.546875-10.972657 0-4.117187-1.632813-8.0625-4.542969-10.972656zm0 0" fill="#ffb13b"/><path d="m131.105469 422.789062c-3.96875 0-7.941407-1.515624-10.96875-4.546874l-115.589844-115.585938c-2.910156-2.910156-4.546875-6.859375-4.546875-10.976562 0-4.113282 1.636719-8.0625 4.546875-10.972657l47.609375-47.597656 137.53125 137.535156-47.609375 47.601563c-3.027344 3.027344-7 4.542968-10.972656 4.542968zm0 0" fill="#82d9b6"/><path d="m62.34375 360.453125 57.792969 57.789063c3.027343 3.03125 7 4.546874 10.96875 4.546874 3.972656 0 7.945312-1.515624 10.972656-4.546874l47.609375-47.597657-68.765625-68.769531zm0 0" fill="#06ccab"/><path d="m179.742188 105.519531 61.113281-61.121093c2.910156-2.910157 6.855469-4.542969 10.972656-4.542969 4.113281 0 8.0625 1.632812 10.972656 4.542969l115.589844 115.589843c6.058594 6.058594 6.058594 15.882813 0 21.945313l-61.109375 61.117187zm0 0" fill="#82d9b6"/><path d="m378.390625 159.988281-57.789063-57.789062-72.089843 72.085937 68.769531 68.765625 61.109375-61.121093c6.0625-6.058594 6.058594-15.882813 0-21.941407zm0 0" fill="#06ccab"/><path d="m418.25 4.546875c-2.910156-2.914063-6.859375-4.546875-10.972656-4.546875-.050782 0-.105469 0-.160156 0l-193.3125 1.992188c-6.25.0625-11.847657 3.867187-14.207032 9.652343-2.363281 5.785157-1.023437 12.417969 3.394532 16.835938l191.316406 191.316406c2.96875 2.96875 6.9375 4.546875 10.972656 4.546875 1.976562 0 3.964844-.378906 5.863281-1.152344 5.785157-2.359375 9.589844-7.960937 9.652344-14.207031l1.996094-193.308594c.046875-4.167969-1.59375-8.179687-4.542969-11.128906zm0 0" fill="#ff5542"/><path d="m422.792969 15.679688c.046875-4.171876-1.589844-8.183594-4.539063-11.132813l-119.601562 119.597656 95.65625 95.652344c2.96875 2.96875 6.9375 4.546875 10.972656 4.546875 1.976562 0 3.964844-.375 5.863281-1.152344 5.785157-2.359375 9.589844-7.957031 9.652344-14.207031zm0 0" fill="#f01f4c"/><path d="m189.453125 204.015625c8.117187 0 15.894531-7.136719 15.515625-15.519531-.375-8.40625-6.816406-15.519532-15.515625-15.519532-8.117187 0-15.894531 7.140626-15.519531 15.519532.378906 8.410156 6.816406 15.519531 15.519531 15.519531zm0 0" fill="#ff5542"/><path d="m233.351562 247.914062c8.117188 0 15.894532-7.136718 15.515626-15.519531-.375-8.40625-6.816407-15.515625-15.515626-15.515625-8.117187 0-15.894531 7.136719-15.519531 15.515625.378907 8.410157 6.820313 15.519531 15.519531 15.519531zm0 0" fill="#f01f4c"/></svg>