<svg height="512pt" viewBox="-70 0 512 512" width="512pt" xmlns="http://www.w3.org/2000/svg"><path d="m186.410156 184.652344c-8.371094 0-15.160156-6.785156-15.160156-15.15625l-.003906-27.757813c0-21.660156 17.621094-39.28125 39.277344-39.28125 4.941406 0 8.960937-4.019531 8.960937-8.960937v-3.609375c0-8.371094 6.785156-15.160157 15.15625-15.160157s15.160156 6.789063 15.160156 15.160157v3.609375c0 21.660156-17.621093 39.277344-39.277343 39.277344-4.941407 0-8.960938 4.019531-8.960938 8.960937l.003906 27.757813c0 8.371093-6.785156 15.160156-15.15625 15.160156zm0 0" fill="#aeabd6"/><path d="m234.640625 74.726562c-8.371094 0-15.15625 6.785157-15.15625 15.15625v3.613282c0 4.941406-4.019531 8.960937-8.960937 8.960937-9.089844 0-17.460938 3.113281-24.121094 8.3125v73.878907h.007812c8.371094 0 15.160156-6.789063 15.15625-15.160157l-.003906-27.757812c0-4.941407 4.019531-8.957031 8.960938-8.957031 21.65625 0 39.277343-17.621094 39.277343-39.277344v-3.613282c0-8.371093-6.789062-15.15625-15.160156-15.15625zm0 0" fill="#897bad"/><path d="m357.648438 512h-342.488282c-5.304687 0-10.222656-2.769531-12.96875-7.308594-2.746094-4.535156-2.921875-10.175781-.464844-14.875l29.183594-55.78125c2.617188-5 7.789063-8.132812 13.433594-8.132812h284.121094c5.640625 0 10.816406 3.132812 13.429687 8.132812l29.183594 55.78125c2.460937 4.699219 2.285156 10.339844-.460937 14.875-2.75 4.539063-7.664063 7.308594-12.96875 7.308594zm0 0" fill="#ffb13b"/><path d="m341.894531 434.035156c-2.613281-5-7.789062-8.132812-13.429687-8.132812h-142.0625v86.097656h171.246094c5.304687 0 10.21875-2.769531 12.96875-7.308594 2.746093-4.535156 2.921874-10.175781.460937-14.875zm0 0" fill="#fe8205"/><path d="m30.910156 434.035156 81.542969-155.875c2.019531-3.859375 5.601563-6.664062 9.832031-7.699218 4.230469-1.035157 8.703125-.195313 12.273438 2.296874l20.804687 14.523438 22.65625-15.046875c5.078125-3.371094 11.6875-3.375 16.769531.003906l22.644532 15.039063 20.796875-14.539063c3.574219-2.496093 8.046875-3.335937 12.277343-2.300781 4.234376 1.035156 7.816407 3.839844 9.835938 7.699219l81.550781 155.898437zm0 0" fill="#ffda45"/><path d="m250.507812 270.4375c-4.230468-1.03125-8.703124-.195312-12.277343 2.300781l-20.796875 14.539063-22.640625-15.039063c-2.542969-1.691406-5.46875-2.535156-8.390625-2.535156v164.332031h155.492187l-81.546875-155.898437c-2.023437-3.859375-5.605468-6.664063-9.839844-7.699219zm0 0" fill="#ffb13b"/><path d="m120.617188 400.042969c7.925781 0 15.523437-6.96875 15.15625-15.15625-.367188-8.214844-6.660157-15.160157-15.15625-15.160157-7.929688 0-15.527344 6.972657-15.160157 15.160157.367188 8.210937 6.660157 15.15625 15.160157 15.15625zm0 0" fill="#ff5542"/><path d="m186.457031 400.042969c7.929688 0 15.527344-6.96875 15.160157-15.15625-.367188-8.214844-6.660157-15.160157-15.160157-15.160157-7.925781 0-15.523437 6.972657-15.15625 15.160157.367188 8.210937 6.660157 15.15625 15.15625 15.15625zm0 0" fill="#ff5542"/><path d="m252.300781 400.042969c7.929688 0 15.523438-6.96875 15.15625-15.15625-.367187-8.214844-6.660156-15.160157-15.15625-15.160157-7.929687 0-15.523437 6.972657-15.160156 15.160157.371094 8.210937 6.664063 15.15625 15.160156 15.15625zm0 0" fill="#f01f4c"/><path d="m186.457031 369.726562c-.019531 0-.039062.003907-.054687.003907v30.308593c.015625 0 .035156.003907.054687.003907 7.929688 0 15.527344-6.96875 15.160157-15.15625-.367188-8.214844-6.660157-15.160157-15.160157-15.160157zm0 0" fill="#f01f4c"/><path d="m155.148438 320.777344c-3.039063 0-6.074219-.914063-8.675782-2.730469l-40.222656-28.03125 66.722656-127.550781c2.613282-5 7.789063-8.132813 13.433594-8.132813 5.640625 0 10.8125 3.132813 13.429688 8.132813l67.636718 129.296875-41.140625 26.28125c-5.109375 3.570312-11.878906 3.648437-17.070312.203125l-22.859375-15.1875-22.871094 15.1875c-2.539062 1.6875-5.464844 2.53125-8.382812 2.53125zm0 0" fill="#ff5542"/><path d="m186.402344 154.332031v148.730469-.003906l22.859375 15.1875c5.191406 3.445312 11.960937 3.367187 17.070312-.203125l41.140625-26.28125-67.636718-129.296875c-2.617188-5-7.789063-8.132813-13.433594-8.132813zm0 0" fill="#f01f4c"/><path d="m234.640625 53.265625c-8.371094 0-15.15625-6.789063-15.15625-15.160156v-22.949219c0-8.371094 6.785156-15.15625 15.15625-15.15625s15.160156 6.785156 15.160156 15.15625v22.949219c0 8.371093-6.789062 15.160156-15.160156 15.160156zm0 0" fill="#ffda45"/><path d="m273.179688 69.226562c-3.882813 0-7.761719-1.480468-10.71875-4.441406-5.921876-5.917968-5.917969-15.515625 0-21.433594l16.226562-16.230468c5.921875-5.917969 15.519531-5.917969 21.4375 0 5.917969 5.921875 5.917969 15.519531 0 21.4375l-16.226562 16.230468c-2.960938 2.957032-6.84375 4.4375-10.71875 4.4375zm0 0" fill="#ffb13b"/><path d="m196.105469 69.226562c-3.878907 0-7.757813-1.480468-10.714844-4.4375l-16.230469-16.230468c-5.917968-5.917969-5.917968-15.515625 0-21.4375 5.917969-5.917969 15.519532-5.917969 21.4375 0l16.226563 16.230468c5.917969 5.917969 5.921875 15.515626.003906 21.433594-2.960937 2.960938-6.84375 4.441406-10.722656 4.441406zm0 0" fill="#ffda45"/><path d="m249.800781 38.105469v-22.949219c0-8.371094-6.789062-15.15625-15.160156-15.15625v53.265625c8.371094 0 15.160156-6.789063 15.160156-15.160156zm0 0" fill="#ffb13b"/></svg>