<?xml version="1.0" encoding="utf-8"?>
<!-- Generator: Adobe Illustrator 22.1.0, SVG Export Plug-In . SVG Version: 6.00 Build 0)  -->
<svg version="1.1" id="Layer_1" xmlns="http://www.w3.org/2000/svg" xmlns:xlink="http://www.w3.org/1999/xlink" x="0px" y="0px"
	 viewBox="0 0 512.1 473.8" style="enable-background:new 0 0 512.1 473.8;" xml:space="preserve">
<style type="text/css">
	.st0{fill:#133330;}
</style>
<g>
	<g>
		<path class="st0" d="M214.8,383.8c-24.8,0-45,20.2-45,45s20.2,45,45,45s45-20.2,45-45S239.6,383.8,214.8,383.8z M214.8,448.7
			c-11,0-19.9-8.9-19.9-19.9s8.9-19.9,19.9-19.9s19.9,8.9,19.9,19.9C234.7,439.8,225.7,448.7,214.8,448.7z"/>
	</g>
</g>
<g>
	<g>
		<path class="st0" d="M372.7,383.8c-24.8,0-45,20.2-45,45s20.2,45,45,45s45-20.2,45-45C417.8,404,397.6,383.8,372.7,383.8z
			 M372.7,448.7c-11,0-19.9-8.9-19.9-19.9s8.9-19.9,19.9-19.9s19.9,8.9,19.9,19.9C392.6,439.8,383.7,448.7,372.7,448.7z"/>
	</g>
</g>
<g>
	<g>
		<path class="st0" d="M383.8,146.8H203.7c-6.9,0-12.6,5.6-12.6,12.6s5.6,12.6,12.6,12.6h180.1c6.9,0,12.6-5.6,12.6-12.6
			C396.4,152.4,390.8,146.8,383.8,146.8z"/>
	</g>
</g>
<g>
	<g>
		<path class="st0" d="M374,212H213.5c-6.9,0-12.6,5.6-12.6,12.6s5.6,12.6,12.6,12.6H374c6.9,0,12.6-5.6,12.6-12.6
			C386.6,217.7,381,212,374,212z"/>
	</g>
</g>
<g>
	<g>
		<path class="st0" d="M506.4,90.7c-4.8-5.9-11.9-9.3-19.5-9.3H95.4L87.5,43c-1.7-8-7.1-14.7-14.6-18L17.7,1
			C11.3-1.6,3.9,1.3,1.1,7.7s0.2,13.8,6.5,16.5l55.2,24l60.8,295.3c2.4,11.6,12.8,20.1,24.6,20.1h301.2c6.9,0,12.6-5.6,12.6-12.6
			c0-6.9-5.6-12.6-12.6-12.6H148.3l-7.4-35.9h310.9c11.9,0,22.2-8.4,24.6-20.1l35.2-170.7C513.1,104.3,511.2,96.6,506.4,90.7z
			 M451.8,277.3H135.7l-35.2-170.7h386.4L451.8,277.3z"/>
	</g>
</g>
</svg>
