<?xml version="1.0" encoding="utf-8"?>
<!-- Generator: Adobe Illustrator 22.1.0, SVG Export Plug-In . SVG Version: 6.00 Build 0)  -->
<svg version="1.1" id="Capa_1" xmlns="http://www.w3.org/2000/svg" xmlns:xlink="http://www.w3.org/1999/xlink" x="0px" y="0px"
	 viewBox="0 0 20.3 35" style="enable-background:new 0 0 20.3 35;" xml:space="preserve">
<style type="text/css">
	.st0{fill:#133330;}
</style>
<g>
	<path class="st0" d="M18,0H2.4C1.1,0,0,1.1,0,2.4v30.3C0,33.9,1.1,35,2.4,35H18c1.3,0,2.4-1.1,2.4-2.4V2.4C20.3,1.1,19.3,0,18,0z
		 M7.7,1.7h5c0.2,0,0.3,0.1,0.3,0.3c0,0.2-0.1,0.3-0.3,0.3h-5C7.5,2.3,7.4,2.1,7.4,2C7.4,1.8,7.5,1.7,7.7,1.7z M10.2,33.8
		c-0.7,0-1.2-0.5-1.2-1.2s0.5-1.2,1.2-1.2s1.2,0.5,1.2,1.2S10.8,33.8,10.2,33.8z M18.7,30.6h-17V3.7h17V30.6z"/>
</g>
</svg>
