<?xml version="1.0" encoding="iso-8859-1"?>
<!-- Generator: Adobe Illustrator 19.0.0, SVG Export Plug-In . SVG Version: 6.00 Build 0)  -->
<svg version="1.1" id="Layer_1" xmlns="http://www.w3.org/2000/svg" xmlns:xlink="http://www.w3.org/1999/xlink" x="0px" y="0px"
	 viewBox="0 0 512 512" style="enable-background:new 0 0 512 512;" xml:space="preserve">
<rect x="124.583" y="297.379" transform="matrix(-0.7071 -0.7071 0.7071 -0.7071 -62.3572 785.3265)" style="fill:#999999;" width="13.77" height="216.397"/>
<path style="fill:#E09B2D;" d="M370.834,195.734l-29.53-29.518L184.29,323.23c-8.149,8.149-8.149,21.368,0,29.518
	c4.081,4.081,9.426,6.121,14.771,6.121c5.333,0,10.678-2.04,14.759-6.121L370.834,195.734z"/>
<g>
	<path style="fill:#F95428;" d="M413.446,123.592c8.149,8.162,8.149,21.368,0,29.518l-42.611,42.624l-29.53-29.518l42.624-42.624
		C392.077,115.443,405.296,115.443,413.446,123.592z"/>
	<path style="fill:#F95428;" d="M394.819,68.137c-3.803,0-6.885-3.082-6.885-6.885v-29.33c0-3.803,3.082-6.885,6.885-6.885
		c3.803,0,6.885,3.082,6.885,6.885v29.33C401.704,65.055,398.622,68.137,394.819,68.137z"/>
	<path style="fill:#F95428;" d="M505.115,149.117h-29.317c-3.803,0-6.885-3.082-6.885-6.885c0-3.803,3.082-6.885,6.885-6.885h29.317
		c3.803,0,6.885,3.082,6.885,6.885C512,146.035,508.917,149.117,505.115,149.117z"/>
	<path style="fill:#F95428;" d="M472.819,227.104c-1.761,0-3.523-0.671-4.867-2.015l-20.742-20.73
		c-2.69-2.688-2.691-7.048-0.003-9.737c2.688-2.689,7.048-2.69,9.737-0.003l20.742,20.73c2.69,2.688,2.691,7.048,0.003,9.737
		C476.344,226.432,474.581,227.104,472.819,227.104z"/>
	<path style="fill:#F95428;" d="M337.561,91.859c-1.763,0-3.525-0.672-4.87-2.018l-20.73-20.742
		c-2.688-2.689-2.686-7.049,0.003-9.737s7.048-2.686,9.737,0.003l20.73,20.742c2.688,2.69,2.686,7.049-0.003,9.737
		C341.084,91.188,339.321,91.859,337.561,91.859z"/>
	<path style="fill:#F95428;" d="M452.076,91.859c-1.763,0-3.524-0.672-4.868-2.017c-2.689-2.689-2.689-7.048,0-9.737l20.742-20.742
		c2.689-2.689,7.048-2.688,9.737,0c2.689,2.689,2.689,7.048,0,9.737l-20.742,20.742C455.6,91.187,453.837,91.859,452.076,91.859z"/>
	<path style="fill:#F95428;" d="M313.84,149.117h-29.317c-3.803,0-6.885-3.082-6.885-6.885c0-3.803,3.082-6.885,6.885-6.885h29.317
		c3.803,0,6.885,3.082,6.885,6.885C320.725,146.035,317.643,149.117,313.84,149.117z"/>
	<path style="fill:#F95428;" d="M394.819,259.413c-3.803,0-6.885-3.082-6.885-6.885v-29.317c0-3.803,3.082-6.885,6.885-6.885
		c3.803,0,6.885,3.082,6.885,6.885v29.317C401.704,256.331,398.622,259.413,394.819,259.413z"/>
</g>
<rect x="335.209" y="171.607" transform="matrix(-0.7073 -0.707 0.707 -0.7073 479.9705 560.7431)" style="fill:#995C0D;" width="41.75" height="18.778"/>
<path style="fill:#F95428;" d="M170.521,166.041l-0.175,0.175l-29.355,29.342l-43.262-43.262c-7.699-7.699-7.699-20.179,0-27.878
	l1.652-1.64c7.699-7.699,20.179-7.699,27.878,0L170.521,166.041z"/>
<rect x="242.337" y="386.274" transform="matrix(-0.7071 -0.7071 0.7071 -0.7071 350.3995 931.457)" style="fill:#999999;" width="251.547" height="13.77"/>
<path style="fill:#F7B239;" d="M256.006,310.574l-29.53-29.53l-85.486-85.486l29.355-29.342l0.175-0.175l85.486,85.486
	l29.518,29.518l43.012,43.012c7.699,7.699,7.699,20.179,0,27.878l-0.826,0.826l-0.826,0.814c-7.699,7.699-20.179,7.699-27.878,0
	L256.006,310.574z"/>
<g>
	<path style="fill:#F95428;" d="M117.181,68.137c-3.803,0-6.885-3.082-6.885-6.885v-29.33c0-3.803,3.082-6.885,6.885-6.885
		c3.803,0,6.885,3.082,6.885,6.885v29.33C124.066,65.055,120.983,68.137,117.181,68.137z"/>
	<path style="fill:#F95428;" d="M36.202,149.117H6.885c-3.803,0-6.885-3.082-6.885-6.885c0-3.803,3.082-6.885,6.885-6.885h29.317
		c3.803,0,6.885,3.082,6.885,6.885C43.087,146.035,40.005,149.117,36.202,149.117z"/>
	<path style="fill:#F95428;" d="M39.194,227.104c-1.763,0-3.524-0.672-4.868-2.017c-2.689-2.689-2.689-7.048,0-9.737l20.73-20.73
		c2.689-2.689,7.048-2.689,9.737,0c2.689,2.689,2.689,7.048,0,9.737l-20.73,20.73C42.718,226.433,40.955,227.104,39.194,227.104z"/>
	<path style="fill:#F95428;" d="M174.439,91.859c-1.763,0-3.524-0.672-4.868-2.017c-2.689-2.689-2.689-7.048,0-9.737l20.742-20.742
		c2.689-2.689,7.048-2.688,9.737,0c2.689,2.689,2.689,7.048,0,9.737l-20.742,20.742C177.963,91.187,176.2,91.859,174.439,91.859z"/>
	<path style="fill:#F95428;" d="M59.924,91.859c-1.763,0-3.525-0.672-4.87-2.018l-20.73-20.742
		c-2.688-2.689-2.686-7.049,0.003-9.737c2.69-2.688,7.049-2.686,9.737,0.003l20.73,20.742c2.688,2.69,2.686,7.049-0.003,9.737
		C63.446,91.188,61.684,91.859,59.924,91.859z"/>
	<path style="fill:#F95428;" d="M227.478,149.117H198.16c-3.803,0-6.885-3.082-6.885-6.885c0-3.803,3.082-6.885,6.885-6.885h29.317
		c3.803,0,6.885,3.082,6.885,6.885C234.363,146.035,231.279,149.117,227.478,149.117z"/>
	<path style="fill:#F95428;" d="M117.181,259.413c-3.803,0-6.885-3.082-6.885-6.885v-29.317c0-3.803,3.082-6.885,6.885-6.885
		c3.803,0,6.885,3.082,6.885,6.885v29.317C124.066,256.331,120.983,259.413,117.181,259.413z"/>
</g>
<rect x="146.189" y="160.089" transform="matrix(-0.7071 -0.7071 0.7071 -0.7071 137.6238 418.9427)" style="fill:#995C0D;" width="18.777" height="41.76"/>
<g>
</g>
<g>
</g>
<g>
</g>
<g>
</g>
<g>
</g>
<g>
</g>
<g>
</g>
<g>
</g>
<g>
</g>
<g>
</g>
<g>
</g>
<g>
</g>
<g>
</g>
<g>
</g>
<g>
</g>
</svg>
