<svg height="472pt" viewBox="0 -3 472 471" width="472pt" xmlns="http://www.w3.org/2000/svg"><path d="m240 132.589844 11.03125 22.351562 24.671875 3.582032-17.847656 17.402343 4.207031 24.574219-22.0625-11.601562-22.0625 11.601562 4.207031-24.574219-17.847656-17.402343 24.671875-3.582032zm0 0" fill="#f7ce49"/><path d="m436.296875 292.589844 11.03125 22.351562 24.671875 3.582032-17.855469 17.402343 4.214844 24.574219-22.0625-11.601562-22.074219 11.601562 4.21875-24.574219-17.847656-17.402343 24.671875-3.582032zm0 0" fill="#83d7dd"/><path d="m240.34375 464.5-15.632812-217.039062c-.234376-4.429688 1.425781-8.75 4.5625-11.890626 6.113281-6.109374 16.027343-6.109374 22.140624 0 3.148438 3.132813 4.8125 7.457032 4.585938 11.890626zm0 0" fill="#dd9e25"/><g fill="#f7ce49"><path d="m232 72.5h16v32h-16zm0 0"/><path d="m232 24.5h16v32h-16zm0 0"/><path d="m185.070312 89.363281 13.855469-8 16 27.710938-13.855469 8zm0 0"/><path d="m161.074219 47.796875 13.855469-8 16.003906 27.710937-13.855469 8zm0 0"/><path d="m152.863281 127.425781 8-13.855469 27.710938 16-8 13.859376zm0 0"/><path d="m111.289062 103.429688 8-13.855469 27.710938 16.003906-8 13.855469zm0 0"/><path d="m144 160.5h32v16h-32zm0 0"/><path d="m96 160.5h32v16h-32zm0 0"/><path d="m152.863281 209.570312 27.714844-16 7.996094 13.859376-27.714844 15.996093zm0 0"/><path d="m111.300781 233.566406 27.714844-15.996094 7.996094 13.855469-27.714844 16zm0 0"/><path d="m185.070312 247.644531 16-27.714843 13.855469 7.996093-15.996093 27.714844zm0 0"/><path d="m161.074219 289.210938 15.996093-27.714844 13.859376 8-16 27.710937zm0 0"/><path d="m265.074219 227.921875 13.855469-8 16 27.710937-13.855469 8zm0 0"/><path d="m289.070312 269.496094 13.855469-8.003906 16.003907 27.714843-13.859376 8zm0 0"/><path d="m291.425781 207.425781 8.003907-13.855469 27.710937 16.003907-8 13.855469zm0 0"/><path d="m332.996094 231.429688 8-13.855469 27.714844 16-8 13.855469zm0 0"/><path d="m304 160.5h32v16h-32zm0 0"/><path d="m352 160.5h32v16h-32zm0 0"/><path d="m291.421875 129.566406 27.714844-16 8 13.859375-27.714844 15.996094zm0 0"/><path d="m333 105.5625 27.714844-15.996094 8 13.855469-27.714844 15.996094zm0 0"/><path d="m265.078125 109.078125 15.996094-27.710937 13.859375 7.996093-16 27.714844zm0 0"/><path d="m289.070312 67.5 15.996094-27.710938 13.855469 7.996094-15.996094 27.714844zm0 0"/></g><path d="m64 216.5c0 8.835938-7.164062 16-16 16s-16-7.164062-16-16 7.164062-16 16-16 16 7.164062 16 16zm0 0" fill="#ea031a"/><path d="m440 232.5c0 8.835938-7.164062 16-16 16s-16-7.164062-16-16 7.164062-16 16-16 16 7.164062 16 16zm0 0" fill="#ea031a"/><path d="m272 456.5 13.3125-29.28125c17.347656-38.175781 46.28125-69.914062 82.6875-90.71875 9.804688 4.902344 16 14.925781 16 25.886719v6.113281l-19.023438 9.511719c-19.191406 9.597656-36.707031 22.222656-51.878906 37.390625zm0 0" fill="#2bb3ce"/><path d="m43.703125 292.589844-11.03125 22.351562-24.671875 3.582032 17.855469 17.402343-4.214844 24.574219 22.0625-11.601562 22.074219 11.601562-4.21875-24.574219 17.847656-17.402343-24.671875-3.582032zm0 0" fill="#ef5822"/><path d="m100.296875.5-11.03125 22.359375-24.671875 3.585937 17.847656 17.398438-4.21875 24.566406 22.074219-11.597656 22.0625 11.597656-4.214844-24.566406 17.855469-17.398438-24.671875-3.585937zm0 0" fill="#9bb93c"/><path d="m435.703125 60.589844-11.03125 22.351562-24.671875 3.582032 17.855469 17.402343-4.214844 24.574219 22.0625-11.601562 22.074219 11.601562-4.21875-24.574219 17.847656-17.402343-24.671875-3.582032zm0 0" fill="#ef5822"/><path d="m208 456.5-13.3125-29.28125c-17.347656-38.175781-46.28125-69.914062-82.6875-90.71875-9.804688 4.902344-16 14.925781-16 25.886719v6.113281l19.023438 9.511719c19.191406 9.597656 36.707031 22.222656 51.878906 37.390625zm0 0" fill="#a75b25"/><path d="m384 8.5h16v16h-16zm0 0" fill="#62cedd"/><path d="m368 24.5h16v16h-16zm0 0" fill="#62cedd"/><path d="m400 24.5h16v16h-16zm0 0" fill="#62cedd"/><path d="m384 40.5h16v16h-16zm0 0" fill="#62cedd"/><path d="m16 72.5h16v16h-16zm0 0" fill="#62cedd"/><path d="m0 88.5h16v16h-16zm0 0" fill="#62cedd"/><path d="m32 88.5h16v16h-16zm0 0" fill="#62cedd"/><path d="m16 104.5h16v16h-16zm0 0" fill="#62cedd"/></svg>